<mxfile host="app.diagrams.net" agent="Mozilla/5.0 (Windows NT 10.0; Win64; x64) AppleWebKit/537.36 (KHTML, like Gecko) Chrome/132.0.0.0 Safari/537.36" version="26.0.11">
  <diagram name="페이지-1" id="msuhqbeo9FvqV9mXiEb1">
    <mxGraphModel dx="1434" dy="772" grid="1" gridSize="10" guides="1" tooltips="1" connect="1" arrows="1" fold="1" page="1" pageScale="1" pageWidth="827" pageHeight="1169" math="0" shadow="0">
      <root>
        <mxCell id="0" />
        <mxCell id="1" parent="0" />
        <mxCell id="0l_GX0ZB4oXg7pkcxgw4-8" value="" style="edgeStyle=orthogonalEdgeStyle;rounded=0;orthogonalLoop=1;jettySize=auto;html=1;entryX=0;entryY=0.5;entryDx=0;entryDy=0;" edge="1" parent="1" source="0l_GX0ZB4oXg7pkcxgw4-1" target="0l_GX0ZB4oXg7pkcxgw4-4">
          <mxGeometry relative="1" as="geometry" />
        </mxCell>
        <mxCell id="0l_GX0ZB4oXg7pkcxgw4-9" value="발행" style="edgeLabel;html=1;align=center;verticalAlign=middle;resizable=0;points=[];" vertex="1" connectable="0" parent="0l_GX0ZB4oXg7pkcxgw4-8">
          <mxGeometry x="-0.0444" y="1" relative="1" as="geometry">
            <mxPoint as="offset" />
          </mxGeometry>
        </mxCell>
        <mxCell id="0l_GX0ZB4oXg7pkcxgw4-1" value="생산자" style="rounded=1;whiteSpace=wrap;html=1;" vertex="1" parent="1">
          <mxGeometry x="130" y="370" width="120" height="60" as="geometry" />
        </mxCell>
        <mxCell id="0l_GX0ZB4oXg7pkcxgw4-11" value="" style="edgeStyle=orthogonalEdgeStyle;rounded=0;orthogonalLoop=1;jettySize=auto;html=1;" edge="1" parent="1" source="0l_GX0ZB4oXg7pkcxgw4-4" target="0l_GX0ZB4oXg7pkcxgw4-10">
          <mxGeometry relative="1" as="geometry">
            <Array as="points">
              <mxPoint x="650" y="390" />
              <mxPoint x="650" y="390" />
            </Array>
          </mxGeometry>
        </mxCell>
        <mxCell id="0l_GX0ZB4oXg7pkcxgw4-13" value="소비" style="edgeLabel;html=1;align=center;verticalAlign=middle;resizable=0;points=[];" vertex="1" connectable="0" parent="0l_GX0ZB4oXg7pkcxgw4-11">
          <mxGeometry x="0.1" y="1" relative="1" as="geometry">
            <mxPoint x="-1" as="offset" />
          </mxGeometry>
        </mxCell>
        <mxCell id="0l_GX0ZB4oXg7pkcxgw4-4" value="" style="rounded=1;whiteSpace=wrap;html=1;" vertex="1" parent="1">
          <mxGeometry x="340" y="370" width="250" height="60" as="geometry" />
        </mxCell>
        <mxCell id="0l_GX0ZB4oXg7pkcxgw4-2" value="" style="shape=message;html=1;html=1;outlineConnect=0;labelPosition=center;verticalLabelPosition=bottom;align=center;verticalAlign=top;" vertex="1" parent="1">
          <mxGeometry x="354" y="380" width="60" height="40" as="geometry" />
        </mxCell>
        <mxCell id="0l_GX0ZB4oXg7pkcxgw4-5" value="" style="shape=message;html=1;html=1;outlineConnect=0;labelPosition=center;verticalLabelPosition=bottom;align=center;verticalAlign=top;" vertex="1" parent="1">
          <mxGeometry x="430" y="380" width="60" height="40" as="geometry" />
        </mxCell>
        <mxCell id="0l_GX0ZB4oXg7pkcxgw4-6" value="" style="shape=message;html=1;html=1;outlineConnect=0;labelPosition=center;verticalLabelPosition=bottom;align=center;verticalAlign=top;" vertex="1" parent="1">
          <mxGeometry x="510" y="380" width="60" height="40" as="geometry" />
        </mxCell>
        <mxCell id="0l_GX0ZB4oXg7pkcxgw4-7" value="메시지 큐" style="text;html=1;align=center;verticalAlign=middle;resizable=0;points=[];autosize=1;strokeColor=none;fillColor=none;" vertex="1" parent="1">
          <mxGeometry x="430" y="430" width="70" height="30" as="geometry" />
        </mxCell>
        <mxCell id="0l_GX0ZB4oXg7pkcxgw4-12" value="" style="edgeStyle=orthogonalEdgeStyle;rounded=0;orthogonalLoop=1;jettySize=auto;html=1;dashed=1;" edge="1" parent="1">
          <mxGeometry relative="1" as="geometry">
            <mxPoint x="690" y="410" as="sourcePoint" />
            <mxPoint x="590" y="410" as="targetPoint" />
          </mxGeometry>
        </mxCell>
        <mxCell id="0l_GX0ZB4oXg7pkcxgw4-14" value="구독" style="edgeLabel;html=1;align=center;verticalAlign=middle;resizable=0;points=[];" vertex="1" connectable="0" parent="0l_GX0ZB4oXg7pkcxgw4-12">
          <mxGeometry x="-0.06" y="-3" relative="1" as="geometry">
            <mxPoint y="2" as="offset" />
          </mxGeometry>
        </mxCell>
        <mxCell id="0l_GX0ZB4oXg7pkcxgw4-10" value="소비자" style="rounded=1;whiteSpace=wrap;html=1;" vertex="1" parent="1">
          <mxGeometry x="690" y="370" width="120" height="60" as="geometry" />
        </mxCell>
      </root>
    </mxGraphModel>
  </diagram>
</mxfile>
